G04 EAGLE Gerber RS-274X export*
G75*
%MOMM*%
%FSLAX34Y34*%
%LPD*%
%INBottom Copper*%
%IPPOS*%
%AMOC8*
5,1,8,0,0,1.08239X$1,22.5*%
G01*
%ADD10P,1.649562X8X112.500000*%
%ADD11C,1.524000*%
%ADD12C,1.879600*%
%ADD13C,0.304800*%


D10*
X634900Y235000D03*
X609500Y235000D03*
X634900Y260400D03*
X609500Y260400D03*
X634900Y285800D03*
X609500Y285800D03*
X634900Y311200D03*
X609500Y311200D03*
X634900Y336600D03*
X609500Y336600D03*
X634900Y362000D03*
X609500Y362000D03*
X634900Y387400D03*
X609500Y387400D03*
X634900Y412800D03*
X609500Y412800D03*
X634900Y438200D03*
X609500Y438200D03*
X634900Y463600D03*
X609500Y463600D03*
X634900Y489000D03*
X609500Y489000D03*
X634900Y514400D03*
X609500Y514400D03*
X634900Y539800D03*
X609500Y539800D03*
X634900Y565200D03*
X609500Y565200D03*
X634900Y590600D03*
X609500Y590600D03*
X634900Y616000D03*
X609500Y616000D03*
X634900Y641400D03*
X609500Y641400D03*
X634900Y666800D03*
X609500Y666800D03*
X634900Y692200D03*
X609500Y692200D03*
X634900Y717600D03*
X609500Y717600D03*
D11*
X394500Y100920D02*
X394500Y85680D01*
X369100Y85680D02*
X369100Y100920D01*
X343700Y100920D02*
X343700Y85680D01*
X318300Y85680D02*
X318300Y100920D01*
X292900Y100920D02*
X292900Y85680D01*
X267500Y85680D02*
X267500Y100920D01*
X510600Y104320D02*
X510600Y89080D01*
X536000Y89080D02*
X536000Y104320D01*
X561400Y104320D02*
X561400Y89080D01*
X586800Y89080D02*
X586800Y104320D01*
X612200Y104320D02*
X612200Y89080D01*
X637600Y89080D02*
X637600Y104320D01*
D12*
X130000Y440000D03*
X130000Y414600D03*
X130000Y389200D03*
X130000Y363800D03*
X130000Y338400D03*
X130000Y313000D03*
X130000Y287600D03*
X130000Y262200D03*
X130000Y236800D03*
X130000Y211400D03*
X130000Y750000D03*
X130000Y724600D03*
X130000Y699200D03*
X130000Y673800D03*
X130000Y648400D03*
X130000Y623000D03*
X130000Y597600D03*
X130000Y572200D03*
X130000Y546800D03*
X130000Y521400D03*
X310000Y440000D03*
X310000Y414600D03*
X310000Y389200D03*
X310000Y363800D03*
X310000Y338400D03*
X310000Y313000D03*
X310000Y287600D03*
X310000Y262200D03*
X310000Y236800D03*
X310000Y211400D03*
X310000Y750000D03*
X310000Y724600D03*
X310000Y699200D03*
X310000Y673800D03*
X310000Y648400D03*
X310000Y623000D03*
X310000Y597600D03*
X310000Y572200D03*
X310000Y546800D03*
X310000Y521400D03*
D13*
X536000Y116000D02*
X536000Y96700D01*
X536000Y116000D02*
X640000Y220000D01*
X640000Y229900D01*
X634900Y235000D01*
X561400Y121400D02*
X561400Y96700D01*
X561400Y121400D02*
X680000Y240000D01*
X680000Y260000D01*
X670000Y270000D01*
X650000Y270000D01*
X640400Y260400D01*
X634900Y260400D01*
X149400Y262200D02*
X130000Y262200D01*
X186538Y205824D02*
X194424Y197938D01*
X213662Y197938D02*
X318300Y93300D01*
X186538Y225062D02*
X149400Y262200D01*
X194424Y197938D02*
X213662Y197938D01*
X186538Y205824D02*
X186538Y225062D01*
X162862Y197938D02*
X267500Y93300D01*
X162862Y197938D02*
X94424Y197938D01*
X60000Y232362D01*
X60000Y470000D01*
X80000Y490000D01*
X170000Y650000D02*
X193800Y673800D01*
X310000Y673800D01*
X170000Y650000D02*
X170000Y500000D01*
X160000Y490000D01*
X80000Y490000D01*
M02*
