G04 EAGLE Gerber RS-274X export*
G75*
%MOMM*%
%FSLAX34Y34*%
%LPD*%
%IN*%
%IPPOS*%
%AMOC8*
5,1,8,0,0,1.08239X$1,22.5*%
G01*
%ADD10C,0.254000*%


D10*
X0Y0D02*
X770000Y0D01*
X770000Y870000D01*
X0Y870000D01*
X0Y0D01*
X35000Y839719D02*
X34937Y839161D01*
X34812Y838614D01*
X34627Y838084D01*
X34383Y837578D01*
X34084Y837102D01*
X33734Y836663D01*
X33337Y836266D01*
X32898Y835916D01*
X32422Y835617D01*
X31916Y835373D01*
X31386Y835188D01*
X30839Y835063D01*
X30281Y835000D01*
X29719Y835000D01*
X29161Y835063D01*
X28614Y835188D01*
X28084Y835373D01*
X27578Y835617D01*
X27102Y835916D01*
X26663Y836266D01*
X26266Y836663D01*
X25916Y837102D01*
X25617Y837578D01*
X25373Y838084D01*
X25188Y838614D01*
X25063Y839161D01*
X25000Y839719D01*
X25000Y840281D01*
X25063Y840839D01*
X25188Y841386D01*
X25373Y841916D01*
X25617Y842422D01*
X25916Y842898D01*
X26266Y843337D01*
X26663Y843734D01*
X27102Y844084D01*
X27578Y844383D01*
X28084Y844627D01*
X28614Y844812D01*
X29161Y844937D01*
X29719Y845000D01*
X30281Y845000D01*
X30839Y844937D01*
X31386Y844812D01*
X31916Y844627D01*
X32422Y844383D01*
X32898Y844084D01*
X33337Y843734D01*
X33734Y843337D01*
X34084Y842898D01*
X34383Y842422D01*
X34627Y841916D01*
X34812Y841386D01*
X34937Y840839D01*
X35000Y840281D01*
X35000Y839719D01*
X745000Y839719D02*
X744937Y839161D01*
X744812Y838614D01*
X744627Y838084D01*
X744383Y837578D01*
X744084Y837102D01*
X743734Y836663D01*
X743337Y836266D01*
X742898Y835916D01*
X742422Y835617D01*
X741916Y835373D01*
X741386Y835188D01*
X740839Y835063D01*
X740281Y835000D01*
X739719Y835000D01*
X739161Y835063D01*
X738614Y835188D01*
X738084Y835373D01*
X737578Y835617D01*
X737102Y835916D01*
X736663Y836266D01*
X736266Y836663D01*
X735916Y837102D01*
X735617Y837578D01*
X735373Y838084D01*
X735188Y838614D01*
X735063Y839161D01*
X735000Y839719D01*
X735000Y840281D01*
X735063Y840839D01*
X735188Y841386D01*
X735373Y841916D01*
X735617Y842422D01*
X735916Y842898D01*
X736266Y843337D01*
X736663Y843734D01*
X737102Y844084D01*
X737578Y844383D01*
X738084Y844627D01*
X738614Y844812D01*
X739161Y844937D01*
X739719Y845000D01*
X740281Y845000D01*
X740839Y844937D01*
X741386Y844812D01*
X741916Y844627D01*
X742422Y844383D01*
X742898Y844084D01*
X743337Y843734D01*
X743734Y843337D01*
X744084Y842898D01*
X744383Y842422D01*
X744627Y841916D01*
X744812Y841386D01*
X744937Y840839D01*
X745000Y840281D01*
X745000Y839719D01*
X745000Y29719D02*
X744937Y29161D01*
X744812Y28614D01*
X744627Y28084D01*
X744383Y27578D01*
X744084Y27102D01*
X743734Y26663D01*
X743337Y26266D01*
X742898Y25916D01*
X742422Y25617D01*
X741916Y25373D01*
X741386Y25188D01*
X740839Y25063D01*
X740281Y25000D01*
X739719Y25000D01*
X739161Y25063D01*
X738614Y25188D01*
X738084Y25373D01*
X737578Y25617D01*
X737102Y25916D01*
X736663Y26266D01*
X736266Y26663D01*
X735916Y27102D01*
X735617Y27578D01*
X735373Y28084D01*
X735188Y28614D01*
X735063Y29161D01*
X735000Y29719D01*
X735000Y30281D01*
X735063Y30839D01*
X735188Y31386D01*
X735373Y31916D01*
X735617Y32422D01*
X735916Y32898D01*
X736266Y33337D01*
X736663Y33734D01*
X737102Y34084D01*
X737578Y34383D01*
X738084Y34627D01*
X738614Y34812D01*
X739161Y34937D01*
X739719Y35000D01*
X740281Y35000D01*
X740839Y34937D01*
X741386Y34812D01*
X741916Y34627D01*
X742422Y34383D01*
X742898Y34084D01*
X743337Y33734D01*
X743734Y33337D01*
X744084Y32898D01*
X744383Y32422D01*
X744627Y31916D01*
X744812Y31386D01*
X744937Y30839D01*
X745000Y30281D01*
X745000Y29719D01*
X35000Y29719D02*
X34937Y29161D01*
X34812Y28614D01*
X34627Y28084D01*
X34383Y27578D01*
X34084Y27102D01*
X33734Y26663D01*
X33337Y26266D01*
X32898Y25916D01*
X32422Y25617D01*
X31916Y25373D01*
X31386Y25188D01*
X30839Y25063D01*
X30281Y25000D01*
X29719Y25000D01*
X29161Y25063D01*
X28614Y25188D01*
X28084Y25373D01*
X27578Y25617D01*
X27102Y25916D01*
X26663Y26266D01*
X26266Y26663D01*
X25916Y27102D01*
X25617Y27578D01*
X25373Y28084D01*
X25188Y28614D01*
X25063Y29161D01*
X25000Y29719D01*
X25000Y30281D01*
X25063Y30839D01*
X25188Y31386D01*
X25373Y31916D01*
X25617Y32422D01*
X25916Y32898D01*
X26266Y33337D01*
X26663Y33734D01*
X27102Y34084D01*
X27578Y34383D01*
X28084Y34627D01*
X28614Y34812D01*
X29161Y34937D01*
X29719Y35000D01*
X30281Y35000D01*
X30839Y34937D01*
X31386Y34812D01*
X31916Y34627D01*
X32422Y34383D01*
X32898Y34084D01*
X33337Y33734D01*
X33734Y33337D01*
X34084Y32898D01*
X34383Y32422D01*
X34627Y31916D01*
X34812Y31386D01*
X34937Y30839D01*
X35000Y30281D01*
X35000Y29719D01*
M02*
