M48
;GenerationSoftware,Autodesk,EAGLE,9.2.2*%
;CreationDate,2019-01-21T18:50:41Z*%
FMAT,2
ICI,OFF
METRIC,TZ,000.000
T2C1.000
T1C1.016
%
G90
M71
T1
X29290Y9330
X31000Y54680
X31000Y57220
X31000Y59760
X63490Y23500
X60950Y23500
X63490Y26040
X60950Y26040
X63490Y28580
X60950Y28580
X63490Y31120
X60950Y31120
X63490Y33660
X60950Y33660
X63490Y36200
X60950Y36200
X63490Y38740
X60950Y38740
X63490Y41280
X60950Y41280
X63490Y43820
X60950Y43820
X63490Y46360
X60950Y46360
X63490Y48900
X60950Y48900
X63490Y51440
X60950Y51440
X63490Y53980
X60950Y53980
X63490Y56520
X60950Y56520
X63490Y59060
X60950Y59060
X63490Y61600
X60950Y61600
X63490Y64140
X60950Y64140
X63490Y66680
X60950Y66680
X63490Y69220
X60950Y69220
X63490Y71760
X60950Y71760
X39450Y9330
X36910Y9330
X34370Y9330
X31830Y9330
X31000Y52140
X26750Y9330
X51060Y9670
X53600Y9670
X56140Y9670
X58680Y9670
X61220Y9670
X63760Y9670
X13000Y44000
X13000Y41460
X13000Y38920
X13000Y36380
X13000Y33840
X13000Y31300
X13000Y28760
X13000Y26220
X13000Y23680
X13000Y21140
X13000Y75000
X13000Y72460
X13000Y69920
X13000Y67380
X13000Y64840
X13000Y62300
X13000Y59760
X13000Y57220
X13000Y54680
X13000Y52140
X31000Y44000
X31000Y41460
X31000Y38920
X31000Y36380
X31000Y33840
X31000Y31300
X31000Y28760
X31000Y26220
X31000Y23680
X31000Y21140
X31000Y75000
X31000Y72460
X31000Y69920
X31000Y67380
X31000Y64840
X31000Y62300
T2
X3000Y3000
X74000Y3000
X74000Y84000
X3000Y84000
M30